<svg width="145" height="85" viewBox="0 0 145 85" fill="none" xmlns="http://www.w3.org/2000/svg">
<path d="M67.6 53.2998C67.6 60.0998 67.6 66.8998 67.6 73.6998" stroke="#B6BBC6" stroke-miterlimit="10" stroke-linecap="round" stroke-linejoin="round"/>
<path d="M76.2 53.5996C76.2 60.3996 76.2 67.1996 76.2 73.9996" stroke="#B6BBC6" stroke-miterlimit="10" stroke-linecap="round" stroke-linejoin="round"/>
<path d="M32.5 36.7998C24 40.1998 15.5 43.5998 6.90002 47.0998" stroke="#B6BBC6" stroke-miterlimit="10" stroke-linecap="round" stroke-linejoin="round"/>
<path d="M111.1 36.7998C119.6 40.1998 128.1 43.5998 136.7 47.0998" stroke="#B6BBC6" stroke-miterlimit="10" stroke-linecap="round" stroke-linejoin="round"/>
<path d="M71.9 50.8C73.2255 50.8 74.3 49.7255 74.3 48.4C74.3 47.0745 73.2255 46 71.9 46C70.5745 46 69.5 47.0745 69.5 48.4C69.5 49.7255 70.5745 50.8 71.9 50.8Z" fill="#3B536B"/>
<path d="M109.2 26.8994C106.7 35.4994 101.2 42.5994 94.6 46.9994C87.6 51.5994 79.6 53.0994 71.5 53.0994C63.4 53.0994 55.4 51.5994 48.4 46.9994C41.8 42.5994 36.3 35.4994 33.8 26.8994" stroke="#797E91" stroke-miterlimit="10" stroke-linecap="round" stroke-linejoin="round"/>
<path d="M82.4 39.9992C82.4 39.9992 60.6 40.7992 59 39.4992C54.9 38.1992 42.8 34.7992 39.6 29.3992C49.9 25.2992 62.2 22.6992 71.8 22.6992C81.4 22.6992 94.6 26.8992 104.9 30.8992C99.1 36.2992 86.5 39.3992 82.4 39.9992Z" fill="#D5DCDE"/>
<path d="M107.4 16.7996C96.3 11.5996 82.9 8.09961 71.7 8.09961H71.5C60.3 8.09961 46.5 11.5996 35.4 16.7996C35.9 17.7996 36.4 25.5996 39.6 29.4996C49.9 25.3996 62.2 22.7996 71.8 22.7996C81.4 22.7996 94.6 26.9996 104.9 30.9996C105.8 28.9996 107.7 17.5996 107.4 16.7996Z" fill="#B3BFC2" stroke="#3B536B" stroke-miterlimit="10" stroke-linecap="round" stroke-linejoin="round"/>
<path d="M46.6 30.9992C36.1 21.9992 37.7 20.7992 35.4 16.6992C34.3 23.2992 33.2 29.7992 32.1 36.3992C38.2 46.9992 48.4 50.1992 50.4 68.2992C65.4 57.9992 65.2 48.5992 72.4 39.9992C66.1 39.6992 53.3 36.7992 46.6 30.9992Z" fill="white" stroke="#3B536B" stroke-miterlimit="10" stroke-linecap="round" stroke-linejoin="round"/>
<path d="M96.1 30.9992C106.6 21.9992 105 20.7992 107.3 16.6992C108.4 23.2992 109.5 29.7992 110.6 36.3992C104.5 46.9992 94.3 50.1992 92.3 68.2992C77.3 57.9992 77.5 48.5992 70.3 39.9992C76.7 39.6992 89.4 36.7992 96.1 30.9992Z" fill="white" stroke="#3B536B" stroke-miterlimit="10" stroke-linecap="round" stroke-linejoin="round"/>
</svg>
