<?xml version="1.0" encoding="UTF-8"?>
<svg width="314px" height="144px" viewBox="0 0 314 144" version="1.1" xmlns="http://www.w3.org/2000/svg" xmlns:xlink="http://www.w3.org/1999/xlink" style="background: #FFFFFF;">
    <!-- Generator: Sketch 49.1 (51147) - http://www.bohemiancoding.com/sketch -->
    <title>Collar-button-down</title>
    <desc>Created with Sketch.</desc>
    <defs></defs>
    <g id="Collar-button-down" stroke="none" stroke-width="1" fill="none" fill-rule="evenodd">
        <g id="thumbnail-misc/collar-background" opacity="0.400000006" transform="translate(8.000000, 3.000000)" stroke="#A9B4C0" stroke-linecap="round" stroke-linejoin="round">
            <g id="Group" transform="translate(31.606061, 56.700000)">
                <path d="M51.681933,0.9 C39.2562011,4.31793663 14.0824584,11.2906596 0,15.1427403" id="Stroke-15" stroke-width="4"></path>
                <path d="M235.352454,0 C225.330379,2.74141342 195.520445,11.0050031 179.70303,15.3316595" id="Stroke-15-Copy" stroke-width="4" transform="translate(207.527742, 7.665830) scale(-1, 1) translate(-207.527742, -7.665830) "></path>
            </g>
            <g id="Group-2" transform="translate(141.775758, 107.100000)">
                <path d="M15.3515152,0 L15.3515152,22.5" id="Stroke-19" stroke-width="2"></path>
                <path d="M0.903030303,0 L0.903030303,22.5" id="Stroke-19" stroke-width="2"></path>
            </g>
        </g>
        <g id="thumbnail/collar/Button-down" transform="translate(90.000000, 14.000000)">
            <g>
                <polygon id="Fill-1" fill="#FFFFFF" points="71.5986 56.7418 109.7886 111.0868 133.8756 46.9668 126.0556 13.6788"></polygon>
                <g id="Group-26" transform="translate(0.000000, 0.036000)">
                    <path d="M109.7887,112 C109.4817,112 109.1907,111.852 109.0117,111.597 L70.8207,57.251 C70.5197,56.822 70.6237,56.23 71.0527,55.929 C71.4817,55.627 72.0727,55.73 72.3757,56.16 L109.5317,109.034 L132.8857,46.867 L125.1317,13.86 C125.0127,13.349 125.3287,12.838 125.8397,12.718 C126.3427,12.602 126.8597,12.914 126.9807,13.425 L134.8007,46.714 C134.8437,46.897 134.8307,47.089 134.7647,47.265 L110.6777,111.385 C110.5537,111.714 110.2577,111.948 109.9087,111.993 C109.8687,111.998 109.8287,112 109.7887,112" id="Fill-2" fill="#1B304E"></path>
                    <polyline id="Fill-5" fill="#FFFFFF" points="8.7691 13.6426 0.9501 46.9316 25.0371 111.0506 63.2271 56.4266"></polyline>
                    <path d="M25.0367,112 C24.9977,112 24.9577,111.998 24.9177,111.993 C24.5677,111.949 24.2717,111.715 24.1477,111.385 L0.0607,47.265 C-0.0053,47.089 -0.0183,46.897 0.0247,46.714 L7.8447,13.425 C7.9657,12.914 8.4827,12.601 8.9857,12.718 C9.4967,12.838 9.8127,13.349 9.6937,13.86 L1.9397,46.867 L25.2917,109.029 L62.4487,55.882 C62.7497,55.453 63.3397,55.347 63.7707,55.648 C64.2007,55.949 64.3067,56.541 64.0057,56.97 L25.8147,111.595 C25.6367,111.851 25.3447,112 25.0367,112" id="Fill-7" fill="#1B304E"></path>
                    <path d="M30.4791,95.1924 C30.4791,97.2904 28.7791,98.9904 26.6811,98.9904 C24.5831,98.9904 22.8831,97.2904 22.8831,95.1924 C22.8831,93.0944 24.5831,91.3944 26.6811,91.3944 C28.7791,91.3944 30.4791,93.0944 30.4791,95.1924" id="Fill-10" fill="#1B304E"></path>
                    <path d="M126.4527,15.4629 C126.4527,22.9459 100.0207,56.6119 67.4157,56.6119 C34.8097,56.6119 8.3787,22.9459 8.3787,15.4629 C8.3787,7.9799 34.8097,1.9139 67.4157,1.9139 C100.0207,1.9139 126.4527,7.9799 126.4527,15.4629" id="Fill-12" fill="#CED6DA"></path>
                    <path d="M67.4156,2.8633 C51.7156,2.8633 36.9656,4.2643 25.8826,6.8073 C15.5166,9.1863 9.3276,12.4223 9.3276,15.4633 C9.3276,23.0963 36.1286,55.6623 67.4156,55.6623 C98.7026,55.6623 125.5036,23.0963 125.5036,15.4633 C125.5036,12.4223 119.3146,9.1863 108.9486,6.8073 C97.8656,4.2643 83.1156,2.8633 67.4156,2.8633 M67.4156,57.5613 C34.3766,57.5613 7.4296,23.7143 7.4296,15.4633 C7.4296,10.1993 17.2326,6.8443 25.4576,4.9563 C36.6766,2.3823 51.5766,0.9643 67.4156,0.9643 C83.2546,0.9643 98.1546,2.3823 109.3736,4.9563 C117.5986,6.8443 127.4016,10.1993 127.4016,15.4633 C127.4016,23.7143 100.4546,57.5613 67.4156,57.5613" id="Fill-14" fill="#1B304E"></path>
                    <path d="M113.399,34.0449 C102.161,30.8219 85.401,28.9739 67.416,28.9739 C49.432,28.9739 32.672,30.8219 21.435,34.0439 L21.173,33.1309 C32.493,29.8859 49.347,28.0249 67.416,28.0249 C85.486,28.0249 102.341,29.8859 113.661,33.1319 L113.399,34.0449 Z" id="Fill-16" fill="#1B304E"></path>
                    <path d="M104.3453,95.1924 C104.3453,97.2904 106.0463,98.9904 108.1443,98.9904 C110.2413,98.9904 111.9423,97.2904 111.9423,95.1924 C111.9423,93.0944 110.2413,91.3944 108.1443,91.3944 C106.0463,91.3944 104.3453,93.0944 104.3453,95.1924" id="Fill-18" fill="#1B304E"></path>
                    <path d="M71.1891,72.2207 C71.1891,74.3107 69.4951,76.0047 67.4051,76.0047 C65.3151,76.0047 63.6211,74.3107 63.6211,72.2207 C63.6211,70.1307 65.3151,68.4367 67.4051,68.4367 C69.4951,68.4367 71.1891,70.1307 71.1891,72.2207" id="Fill-20" fill="#1B304E"></path>
                    <path d="M58.8912,85.5923 L56.9982,85.5923 L56.9982,70.0063 C56.9982,65.2373 59.7932,60.8593 64.1182,58.8523 L70.7902,55.7543 L71.5872,57.4693 L64.9142,60.5683 C61.2552,62.2663 58.8912,65.9713 58.8912,70.0063 L58.8912,85.5923 Z" id="Fill-22" fill="#1B304E"></path>
                    <path d="M87.8893,81.2891 C84.9313,83.3101 81.6253,84.8041 78.1613,85.8291 C76.4353,86.3731 74.6513,86.7101 72.8583,87.0081 C71.0583,87.2621 69.2383,87.3821 67.4153,87.4091 C65.5933,87.3771 63.7723,87.2651 61.9733,87.0041 C60.1803,86.7091 58.3973,86.3671 56.6703,85.8241 C53.2063,84.7981 49.9013,83.3071 46.9413,81.2891 L47.0173,81.1151 C53.4493,83.8901 60.4093,85.5501 67.4153,85.5121 C74.4223,85.5491 81.3813,83.8901 87.8143,81.1151 L87.8893,81.2891 Z" id="Fill-24" fill="#1B304E"></path>
                </g>
            </g>
        </g>
    </g>
</svg>