<svg width="145" height="86" viewBox="0 0 145 86" fill="none" xmlns="http://www.w3.org/2000/svg">
<path d="M111.1 37.5C119.6 40.9 128.1 44.3 136.7 47.8" stroke="#B6BBC6" stroke-miterlimit="10" stroke-linecap="round" stroke-linejoin="round"/>
<path d="M32.5 37.5C24 40.9 15.5 44.3 6.90002 47.8" stroke="#B6BBC6" stroke-miterlimit="10" stroke-linecap="round" stroke-linejoin="round"/>
<path d="M67.6 54C67.6 60.8 67.6 67.6 67.6 74.4" stroke="#B6BBC6" stroke-miterlimit="10" stroke-linecap="round" stroke-linejoin="round"/>
<path d="M76.2 54.2998C76.2 61.0998 76.2 67.8998 76.2 74.6998" stroke="#B6BBC6" stroke-miterlimit="10" stroke-linecap="round" stroke-linejoin="round"/>
<path d="M72.3 51.8C73.6255 51.8 74.7 50.7255 74.7 49.4C74.7 48.0745 73.6255 47 72.3 47C70.9745 47 69.9 48.0745 69.9 49.4C69.9 50.7255 70.9745 51.8 72.3 51.8Z" fill="#3B536B"/>
<path d="M109.7 27.8994C107.2 36.4994 101.7 43.5994 95.1 47.9994C88.1 52.5994 80.1 54.0994 72 54.0994C63.9 54.0994 55.9 52.5994 48.9 47.9994C42.3 43.5994 36.8 36.4994 34.3 27.8994" stroke="#797E91" stroke-miterlimit="10" stroke-linecap="round" stroke-linejoin="round"/>
<path d="M82.8 40.9992C82.8 40.9992 61 41.7992 59.4 40.4992C55.3 39.1992 43.2 35.7992 40 30.3992C50.3 26.2992 62.6 23.6992 72.2 23.6992C81.8 23.6992 95 27.8992 105.3 31.8992C99.6 37.3992 87 40.3992 82.8 40.9992Z" fill="#D5DCDE"/>
<path d="M107.8 17.7996C96.7 12.5996 83.3 9.09961 72.1 9.09961H72C60.8 9.09961 47 12.5996 35.9 17.7996C36.4 18.7996 36.9 26.5996 40.1 30.4996C50.4 26.3996 62.7 23.7996 72.3 23.7996C81.9 23.7996 95.1 27.9996 105.4 31.9996C106.2 29.9996 108.2 18.5996 107.8 17.7996Z" fill="#B3BFC2" stroke="#3B536B" stroke-miterlimit="10" stroke-linecap="round" stroke-linejoin="round"/>
<path d="M47.1 32.0998C36.6 23.0998 38.2 21.8998 35.9 17.7998C34.8 24.3998 33.7 30.8998 32.6 37.4998C38.7 48.0998 44.8 58.7998 50.9 69.3998C58 60.7998 65.7 49.6998 72.9 41.0998C66.6 40.6998 53.8 37.8998 47.1 32.0998Z" fill="white" stroke="#3B536B" stroke-miterlimit="10" stroke-linecap="round" stroke-linejoin="round"/>
<path d="M95.8 33.5998C105.4 25.1998 106.5 21.8998 107.8 17.7998C108.9 24.3998 110 30.8998 111.1 37.4998C105 48.0998 98.9 58.7998 92.8 69.3998C85.7 60.7998 79.8 49.6998 72.6 41.0998C78.5 40.3998 88.9 39.5998 95.8 33.5998Z" fill="white" stroke="#3B536B" stroke-miterlimit="10" stroke-linecap="round" stroke-linejoin="round"/>
<path d="M51.7 62.8997C53.0255 62.8997 54.1 61.8251 54.1 60.4996C54.1 59.1742 53.0255 58.0996 51.7 58.0996C50.3745 58.0996 49.3 59.1742 49.3 60.4996C49.3 61.8251 50.3745 62.8997 51.7 62.8997Z" fill="#3B536B"/>
<path d="M92.9 62.8997C94.2255 62.8997 95.3 61.8251 95.3 60.4996C95.3 59.1742 94.2255 58.0996 92.9 58.0996C91.5745 58.0996 90.5 59.1742 90.5 60.4996C90.5 61.8251 91.5745 62.8997 92.9 62.8997Z" fill="#3B536B"/>
</svg>
