<svg width="77" height="68" viewBox="0 0 77 68" fill="none" xmlns="http://www.w3.org/2000/svg">
<path d="M67.5 17.5998C67.5 13.9998 67.5 10.3998 67.5 6.7998" stroke="#B6BBC6" stroke-miterlimit="10" stroke-linecap="round" stroke-linejoin="round"/>
<path d="M9.29999 17.5998C9.29999 13.9998 9.29999 10.3998 9.29999 6.7998" stroke="#B6BBC6" stroke-miterlimit="10" stroke-linecap="round" stroke-linejoin="round"/>
<path d="M9.29999 17.5996C9.29999 17.5996 42.6 17.5996 59.9 17.5996C59.9 29.7996 59.9 41.8996 59.9 54.0996C58.1 55.7996 56.4 57.4996 54.6 59.1996C41.3 59.1996 9.69999 59.1996 9.69999 59.1996L9.29999 17.5996Z" stroke="#3B536B" stroke-miterlimit="10" stroke-linecap="round" stroke-linejoin="round"/>
<path d="M57.5 56.3996C58.7 57.2996 59.8 58.1996 61 59.1996C63.2 59.1996 65.4 59.1996 67.5 59.1996C67.5 45.2996 67.5 31.4996 67.5 17.5996C64.7 17.5996 61.9 17.5996 59 17.5996" stroke="#3B536B" stroke-miterlimit="10" stroke-linecap="round" stroke-linejoin="round"/>
<path d="M48.5 45.5C50.7091 45.5 52.5 43.7091 52.5 41.5C52.5 39.2909 50.7091 37.5 48.5 37.5C46.2909 37.5 44.5 39.2909 44.5 41.5C44.5 43.7091 46.2909 45.5 48.5 45.5Z" stroke="#3B536B" stroke-miterlimit="10" stroke-linecap="round" stroke-linejoin="round"/>
</svg>
