<svg width="144" height="85" viewBox="0 0 144 85" fill="none" xmlns="http://www.w3.org/2000/svg">
<path d="M101.9 27.0996C113.4 27.0996 124.9 27.0996 136.5 27.0996C136.5 38.0996 136.5 49.0996 136.5 60.0996C135.3 61.5996 134.2 63.1996 133 64.6996C124.1 64.6996 115.3 64.6996 106.4 64.6996C105.1 63.1996 103.8 61.7996 102.5 60.2996C102.3 49.2996 102.1 38.1996 101.9 27.0996Z" stroke="#3B536B" stroke-miterlimit="10" stroke-linecap="round" stroke-linejoin="round"/>
<path d="M102.2 36.9004C113.6 36.9004 124.9 36.9004 136.3 36.9004" stroke="#3B536B" stroke-miterlimit="10" stroke-linecap="round" stroke-linejoin="round"/>
<path d="M66.2 10.7998C66.2 31.6998 66.2 52.6998 66.2 73.5998" stroke="#3B536B" stroke-miterlimit="10" stroke-linecap="round" stroke-linejoin="round"/>
<path d="M75.2 10.7998C75.2 31.6998 75.2 52.6998 75.2 73.5998" stroke="#B6BBC6" stroke-miterlimit="10" stroke-linecap="round" stroke-linejoin="round"/>
<path d="M70.7 18.8998C71.6941 18.8998 72.5 18.0939 72.5 17.0998C72.5 16.1057 71.6941 15.2998 70.7 15.2998C69.7059 15.2998 68.9 16.1057 68.9 17.0998C68.9 18.0939 69.7059 18.8998 70.7 18.8998Z" fill="#B6BBC6"/>
<path d="M70.7 41.1996C71.6941 41.1996 72.5 40.3937 72.5 39.3996C72.5 38.4055 71.6941 37.5996 70.7 37.5996C69.7059 37.5996 68.9 38.4055 68.9 39.3996C68.9 40.3937 69.7059 41.1996 70.7 41.1996Z" fill="#B6BBC6"/>
<path d="M70.7 63.6C71.6941 63.6 72.5 62.7941 72.5 61.8C72.5 60.8059 71.6941 60 70.7 60C69.7059 60 68.9 60.8059 68.9 61.8C68.9 62.7941 69.7059 63.6 70.7 63.6Z" fill="#B6BBC6"/>
</svg>
