<?xml version="1.0" encoding="UTF-8" standalone="no"?>
<svg
   xmlns:dc="http://purl.org/dc/elements/1.1/"
   xmlns:cc="http://creativecommons.org/ns#"
   xmlns:rdf="http://www.w3.org/1999/02/22-rdf-syntax-ns#"
   xmlns:svg="http://www.w3.org/2000/svg"
   xmlns="http://www.w3.org/2000/svg"
   xmlns:sodipodi="http://sodipodi.sourceforge.net/DTD/sodipodi-0.dtd"
   xmlns:inkscape="http://www.inkscape.org/namespaces/inkscape"
   id="Layer_1"
   viewBox="0 0 314 234"
   version="1.1"
   sodipodi:docname="Camp_collar_v5_collar only.svg"
   inkscape:version="0.92.5 (2060ec1f9f, 2020-04-08)"
   width="314"
   height="234">
  <metadata
     id="metadata36">
    <rdf:RDF>
      <cc:Work
         rdf:about="">
        <dc:format>image/svg+xml</dc:format>
        <dc:type
           rdf:resource="http://purl.org/dc/dcmitype/StillImage" />
        <dc:title></dc:title>
      </cc:Work>
    </rdf:RDF>
  </metadata>
  <sodipodi:namedview
     pagecolor="#ffffff"
     bordercolor="#666666"
     borderopacity="1"
     objecttolerance="10"
     gridtolerance="10"
     guidetolerance="10"
     inkscape:pageopacity="0"
     inkscape:pageshadow="2"
     inkscape:window-width="1600"
     inkscape:window-height="836"
     id="namedview34"
     showgrid="false"
     inkscape:zoom="1.9629861"
     inkscape:cx="51.430987"
     inkscape:cy="96.590826"
     inkscape:window-x="0"
     inkscape:window-y="27"
     inkscape:window-maximized="1"
     inkscape:current-layer="Layer_1" />
  <defs
     id="defs4">
    <style
       id="style2">.cls-1{opacity:.4;}.cls-1,.cls-2,.cls-3,.cls-4,.cls-5{fill:none;}.cls-2,.cls-3,.cls-4,.cls-5{stroke-linejoin:round;}.cls-2,.cls-5{stroke:#202f4c;}.cls-6{fill:#f2f2f2;}.cls-7{fill:#ced6da;}.cls-8{fill:#202f4c;}.cls-3,.cls-4{stroke:#a9b4c0;stroke-linecap:round;}.cls-3,.cls-5{stroke-width:2px;}.cls-4{stroke-width:4px;}</style>
  </defs>
  <g
     id="g1495"
     transform="translate(0,-4.0242092)">
    <g
       id="Collar-high-button-down">
      <g
         class="cls-1"
         id="thumbnail-misc_collar-background"
         style="opacity:0.4;fill:none">
        <g
           id="Group">
          <path
             d="M 91.29,60.6 C 78.86,64.02 53.69,70.99 39.61,74.84"
             class="cls-4"
             id="Stroke-15"
             inkscape:connector-curvature="0"
             style="fill:none;stroke:#a9b4c0;stroke-width:4px;stroke-linecap:round;stroke-linejoin:round" />
          <path
             d="m 219.31,59.7 c 10.02,2.74 39.83,11.01 55.65,15.33"
             class="cls-4"
             id="Stroke-15-Copy"
             inkscape:connector-curvature="0"
             style="fill:none;stroke:#a9b4c0;stroke-width:4px;stroke-linecap:round;stroke-linejoin:round" />
        </g>
        <g
           id="Group-2">
          <path
             d="m 165.13,110.1 v 22.5"
             class="cls-3"
             id="Stroke-19"
             inkscape:connector-curvature="0"
             style="fill:none;stroke:#a9b4c0;stroke-width:2px;stroke-linecap:round;stroke-linejoin:round" />
          <path
             d="m 150.68,110.1 v 22.5"
             class="cls-3"
             id="Stroke-19-2"
             inkscape:connector-curvature="0"
             style="fill:none;stroke:#a9b4c0;stroke-width:2px;stroke-linecap:round;stroke-linejoin:round" />
        </g>
      </g>
    </g>
    <path
       style="fill:#ffffff;fill-opacity:1"
       id="path14"
       d="m 234.47,110.52 -37.78,8.46 6.1,17.64 c 0,0 -30.39,33.52 -55.2,66.4 l -0.71,8.63 c 0,-6.36 1.73,-14.34 5.48,-26.23 11.43,-36.27 50.75,-98 57.07,-132.99 0.84,-4.6 1.3,-9.96 1.3,-13.82 0,-4.07 -2.57,-7.38 -6.61,-10.01 l 0.09,-0.14 c 4.92,3.25 22.67,16.94 25.72,31.47 5.41,25.68 2.54,41.74 4.54,50.6 z"
       class="cls-6"
       inkscape:connector-curvature="0" />
    <path
       id="path16"
       d="m 210.73,38.61 c 0,3.87 -0.45,9.22 -1.3,13.82 -0.51,-0.84 -24.43,-10.49 -51.75,-10.49 -27.32,0 -50.84,9.64 -51.34,10.49 -0.75,-4.7 -1.17,-10.06 -1.17,-13.82 0,-2.65 1.09,-4.98 2.96,-7 8.17,-8.84 36.66,-10.92 49.54,-10.92 h 0.54 c 11.3,0 35.84,1.35 45.89,7.9 4.04,2.63 6.61,5.94 6.61,10.01 z"
       class="cls-7"
       inkscape:connector-curvature="0"
       style="fill:#ced6da" />
    <path
       id="path18"
       d="M 151.4,178.37 C 143.99,162.01 107.9,92.69 101.7,54.1 c 0.5,-0.84 25.32,-17.54 52.64,-17.54 27.32,0 54.58,15.03 55.08,15.87 -6.32,34.99 -41.22,91.4 -54.87,126.89 -0.01,-0.02 -3.15,-0.93 -3.16,-0.95"
       class="cls-7"
       inkscape:connector-curvature="0"
       style="fill:#ced6da" />
    <path
       style="fill:#ffffff;fill-opacity:1"
       id="path20"
       d="m 151.47,176.7 c -8.37,-15.24 -45.12,-40.08 -45.12,-40.08 l 8.06,-17.99 -33.79,-8.37 c 2.16,-7.15 2.49,-42.81 5.39,-50.33 4.61,-12.01 21.55,-27.89 22.08,-28.36 l 0.05,0.04 c -1.87,2.02 -2.96,4.35 -2.96,7 0,3.76 0.42,9.12 1.17,13.82 6.2,38.59 37.71,107.91 45.12,124.27 z"
       class="cls-6"
       inkscape:connector-curvature="0" />
    <path
       id="path22"
       d="m 153.44,181.42 c -16.06,-35.44 -32.17,-71.13 -43.28,-108.5 -3.05,-10.56 -5.64,-21.43 -5.95,-32.46 0,-1.09 -0.11,-2.78 0.17,-3.86 2.81,-14.35 34.82,-16.02 46.76,-16.75 14.67,-0.43 29.5,0.27 43.78,3.9 7.55,1.98 17.31,6.66 16.79,15.81 -0.1,4.31 -0.51,8.61 -1.27,12.86 0,0 -1.59,7.2 -1.59,7.2 -10.67,37.64 -31.83,71.14 -47.36,106.74 -7.63,17.67 -14.56,36.23 -15.08,55.66 0,0 -1.35,0 -1.35,0 -0.11,-14.79 4.07,-29.14 9.07,-42.9 15.55,-40.89 40.82,-77.76 52.79,-120 0,0 1.55,-7.05 1.55,-7.05 0.73,-4.12 1.14,-8.35 1.24,-12.54 1.06,-18.15 -45.81,-18.06 -58.49,-17.68 -10.79,0.64 -44.89,2.4 -45.05,16.76 0.06,11.48 2.73,22.78 5.9,33.76 5.4,18.66 12.43,36.81 19.76,54.79 7.38,17.99 15.31,35.74 23.42,53.44 0,0 -1.82,0.82 -1.82,0.82 v 0 z"
       class="cls-8"
       inkscape:connector-curvature="0"
       style="fill:#202f4c" />
    <path
       id="path24"
       d="m 108.1,31.55 h -0.01 c -0.53,0.48 -18.55,16.36 -23.16,28.37 -2.89,7.53 -3.23,43.18 -5.39,50.33 l 34.87,8.37 -8.06,17.99 c 0,0 39.63,29.15 48,44.38"
       class="cls-5"
       inkscape:connector-curvature="0"
       style="fill:none;stroke:#202f4c;stroke-width:2px;stroke-linejoin:round" />
    <path
       id="path26"
       d="m 208.54,30.85 c 5.25,5 10.26,10.38 14.74,16.17 3.29,4.45 6.66,9.03 8.15,14.52 0.38,1.84 0.63,3.67 0.84,5.49 1.45,13.57 1.09,27.16 2.67,40.68 0.1,0.93 0.32,1.75 0.5,2.61 0.12,0.54 -0.22,1.07 -0.76,1.19 l -37.78,8.46 0.73,-1.3 6.1,17.64 c 0.13,0.37 0.03,0.76 -0.22,1.02 -5.27,5.5 -10.45,11.12 -15.55,16.79 -12.6,14.24 -25.32,28.6 -35.44,44.74 -1.94,3.24 -3.77,6.59 -4.85,10.11 0,0 -1.56,-0.44 -1.56,-0.44 2.41,-7.48 6.96,-13.79 11.35,-20.14 8.97,-12.43 18.93,-24.08 29.09,-35.54 5.09,-5.71 10.25,-11.35 15.53,-16.91 0,0 -0.22,1.02 -0.22,1.02 0,0 -6.1,-17.64 -6.1,-17.64 -0.2,-0.56 0.15,-1.18 0.73,-1.3 0,0 37.78,-8.46 37.78,-8.46 l -0.74,1.26 c -1.54,-7.2 -1.4,-14.6 -1.88,-21.91 -0.52,-9.02 -0.55,-18.07 -2.16,-26.93 -1.39,-5.05 -4.66,-9.53 -7.78,-13.74 -4.4,-5.69 -9.31,-10.97 -14.56,-15.97 l 1.41,-1.41 v 0 z"
       class="cls-8"
       inkscape:connector-curvature="0"
       style="fill:#202f4c" />
    <path
       id="path28"
       d="m 107.36,57.83 c 0.5,-0.84 23.01,-7.25 50.33,-7.25"
       class="cls-2"
       inkscape:connector-curvature="0"
       style="fill:none;stroke:#202f4c;stroke-linejoin:round" />
    <path
       id="path30"
       d="M 208.18,57.27 C 207.67,56.43 185,50.58 157.68,50.58"
       class="cls-2"
       inkscape:connector-curvature="0"
       style="fill:none;stroke:#202f4c;stroke-linejoin:round" />
    <path
       d="m 165.13,194.71 v 27.3"
       class="cls-3"
       id="Stroke-19-3"
       inkscape:connector-curvature="0"
       style="fill:none;stroke:#a9b4c0;stroke-width:2px;stroke-linecap:round;stroke-linejoin:round" />
  </g>
</svg>
