<svg width="145" height="85" viewBox="0 0 145 85" fill="none" xmlns="http://www.w3.org/2000/svg">
<path d="M68.2 47.0996C68.2 52.8996 68.2 58.7996 68.2 64.5996" stroke="#B6BBC6" stroke-miterlimit="10" stroke-linecap="round" stroke-linejoin="round"/>
<path d="M75.6 47.2998C75.6 53.0998 75.6 58.9998 75.6 64.7998" stroke="#B6BBC6" stroke-miterlimit="10" stroke-linecap="round" stroke-linejoin="round"/>
<path d="M72.2 45.2C73.3598 45.2 74.3 44.2598 74.3 43.1C74.3 41.9402 73.3598 41 72.2 41C71.0402 41 70.1 41.9402 70.1 43.1C70.1 44.2598 71.0402 45.2 72.2 45.2Z" fill="#3B536B"/>
<path d="M38.1 32.7998C28.4 35.6998 18.8 38.6998 9.09998 41.5998" stroke="#B6BBC6" stroke-miterlimit="10" stroke-linecap="round" stroke-linejoin="round"/>
<path d="M105.6 32.7998C114.4 35.6998 123.2 38.6998 132 41.5998" stroke="#B6BBC6" stroke-miterlimit="10" stroke-linecap="round" stroke-linejoin="round"/>
<path d="M99.6 24.6996C91.2 21.1996 80.5 17.5996 72.7 17.5996C60.5 17.5996 51.2 21.0996 46.5 23.2996C46.7 23.6996 47.1 24.1996 47.6 24.6996C47.3 24.6996 47.1 24.6996 46.8 24.6996C55.2 40.0996 63.6 55.3996 71.9 70.7996C80.7 55.7996 89.5 40.7996 98.2 25.7996C98.7 25.4996 99.2 25.0996 99.6 24.6996Z" fill="#D5DCDE"/>
<path d="M101.5 12.5C92.5 8 81.6 5 72.5 5H72.3C63.2 5 52 8 42.9 12.5C43.3 13.4 43.7 20.1 46.3 23.4C54.7 19.9 64.7 17.7 72.5 17.7C80.3 17.7 91.1 21.3 99.4 24.8C100.2 23 101.8 13.2 101.5 12.5Z" fill="#B3BFC2" stroke="#3B536B" stroke-miterlimit="10" stroke-linecap="round" stroke-linejoin="round"/>
<path d="M43 12.5C46.7 20.9 50.8 29.7 55.4 38.8C60.4 48.6 66.8 62.6 71.9 71C63.6 64.6 50.6 55.8 50.6 55.8C51.3 53 53.8 47.6 53.8 47.6L38.5 45C38.5 45 38.1 32.7 38.7 27.9C39.5 22 42 17.8 43 12.5Z" fill="white" stroke="#3B536B" stroke-miterlimit="10" stroke-linecap="round" stroke-linejoin="round"/>
<path d="M101.1 12.5C97.4 20.9 93.3 29.7 88.7 38.8C83.7 48.6 70.7 71.6 67.8 80.6C74.7 74 86.3 60.6 92.7 57.8C92 55 91.2 52.2 90.5 49.4C95.5 47.5 100.7 47.1 105.6 45.2C105.2 40.7 106 32.9 105.4 28.1C104.5 22 102.1 17.8 101.1 12.5Z" fill="white" stroke="#3B536B" stroke-miterlimit="10" stroke-linecap="round" stroke-linejoin="round"/>
</svg>
