<svg width="145" height="85" viewBox="0 0 145 85" fill="none" xmlns="http://www.w3.org/2000/svg">
<path d="M67.6 53.7002C67.6 60.5002 67.6 67.3002 67.6 74.1002" stroke="#B6BBC6" stroke-miterlimit="10" stroke-linecap="round" stroke-linejoin="round"/>
<path d="M76.2 54.0996C76.2 60.8996 76.2 67.6996 76.2 74.4996" stroke="#B6BBC6" stroke-miterlimit="10" stroke-linecap="round" stroke-linejoin="round"/>
<path d="M72.3 51.5998C73.6255 51.5998 74.7 50.5253 74.7 49.1998C74.7 47.8743 73.6255 46.7998 72.3 46.7998C70.9745 46.7998 69.9 47.8743 69.9 49.1998C69.9 50.5253 70.9745 51.5998 72.3 51.5998Z" fill="#3B536B"/>
<path d="M32.5 37.2002C24 40.6002 15.5 44.0002 6.90002 47.5002" stroke="#B6BBC6" stroke-miterlimit="10" stroke-linecap="round" stroke-linejoin="round"/>
<path d="M111.1 37.2002C119.6 40.6002 128.1 44.0002 136.7 47.5002" stroke="#B6BBC6" stroke-miterlimit="10" stroke-linecap="round" stroke-linejoin="round"/>
<path d="M109.7 27.7002C107.2 36.3002 101.7 43.4002 95.1 47.8002C88.1 52.4002 80.1 53.9002 72 53.9002C63.9 53.9002 55.9 52.4002 48.9 47.8002C42.3 43.4002 36.8 36.3002 34.3 27.7002" stroke="#797E91" stroke-miterlimit="10" stroke-linecap="round" stroke-linejoin="round"/>
<path d="M82.8 40.8C82.8 40.8 61 41.6 59.4 40.3C55.3 39 43.2 35.6 40 30.2C50.3 26.1 62.6 23.5 72.2 23.5C81.8 23.5 95 27.7 105.3 31.7C99.6 37.1 87 40.2 82.8 40.8Z" fill="#D5DCDE"/>
<path d="M107.8 17.4998C96.7 12.2998 83.3 8.7998 72.1 8.7998H72C60.8 8.7998 47 12.2998 35.9 17.4998C36.4 18.4998 36.9 26.2998 40.1 30.1998C50.4 26.0998 62.7 23.4998 72.3 23.4998C81.9 23.4998 95.1 27.6998 105.4 31.6998C106.2 29.7998 108.2 18.3998 107.8 17.4998Z" fill="#B3BFC2" stroke="#3B536B" stroke-miterlimit="10" stroke-linecap="round" stroke-linejoin="round"/>
<path d="M47.1 31.8C36.6 22.8 38.2 21.6 35.9 17.5C34.8 24.1 33.7 30.6 32.6 37.2C38.7 47.8 44.8 58.5 50.9 69.1C58 60.5 65.7 49.4 72.9 40.8C66.6 40.4 53.8 37.6 47.1 31.8Z" fill="white" stroke="#3B536B" stroke-miterlimit="10" stroke-linecap="round" stroke-linejoin="round"/>
<path d="M95.8 33.3C105.4 24.9 106.5 21.6 107.8 17.5C108.9 24.1 110 30.6 111.1 37.2C105.1 47.8 99 58.5 92.9 69.1C85.8 60.5 79.9 49.4 72.7 40.8C78.5 40.1 88.9 39.3 95.8 33.3Z" fill="white" stroke="#3B536B" stroke-miterlimit="10" stroke-linecap="round" stroke-linejoin="round"/>
</svg>
