<svg width="77" height="67" viewBox="0 0 77 67" fill="none" xmlns="http://www.w3.org/2000/svg">
<path d="M67.5 16.8996C67.5 13.2996 67.5 9.69961 67.5 6.09961" stroke="#B6BBC6" stroke-miterlimit="10" stroke-linecap="round" stroke-linejoin="round"/>
<path d="M9.29999 16.8996C9.29999 13.2996 9.29999 9.69961 9.29999 6.09961" stroke="#B6BBC6" stroke-miterlimit="10" stroke-linecap="round" stroke-linejoin="round"/>
<path d="M9.29999 16.9004C9.29999 16.9004 42.6 16.9004 59.9 16.9004C59.9 29.1004 59.9 41.2004 59.9 53.4004C58.1 55.1004 56.4 56.8004 54.6 58.5004C41.3 58.5004 9.69999 58.5004 9.69999 58.5004L9.29999 16.9004Z" stroke="#3B536B" stroke-miterlimit="10" stroke-linecap="round" stroke-linejoin="round"/>
<path d="M57.5 55.8C58.7 56.7 59.8 57.6 61 58.6C63.2 58.6 65.4 58.6 67.5 58.6C67.5 44.7 67.5 30.9 67.5 17C64.7 17 61.9 17 59 17" stroke="#3B536B" stroke-miterlimit="10" stroke-linecap="round" stroke-linejoin="round"/>
<path d="M54.9 39C50.9 39 46.8 39 42.8 39" stroke="#3B536B" stroke-miterlimit="10" stroke-linecap="round" stroke-linejoin="round"/>
</svg>
