<?xml version="1.0" encoding="UTF-8"?>
<svg width="314px" height="144px" viewBox="0 0 314 144" version="1.1" xmlns="http://www.w3.org/2000/svg" xmlns:xlink="http://www.w3.org/1999/xlink" style="background: #FFFFFF;">
    <!-- Generator: Sketch 49.1 (51147) - http://www.bohemiancoding.com/sketch -->
    <title>Collar-spread</title>
    <desc>Created with Sketch.</desc>
    <defs></defs>
    <g id="Collar-spread" stroke="none" stroke-width="1" fill="none" fill-rule="evenodd">
        <g id="thumbnail-misc/collar-background" opacity="0.400000006" transform="translate(8.000000, 3.000000)" stroke="#A9B4C0" stroke-linecap="round" stroke-linejoin="round">
            <g id="Group" transform="translate(31.606061, 56.700000)">
                <path d="M51.681933,0.9 C39.2562011,4.31793663 14.0824584,11.2906596 0,15.1427403" id="Stroke-15" stroke-width="4"></path>
                <path d="M235.352454,0 C225.330379,2.74141342 195.520445,11.0050031 179.70303,15.3316595" id="Stroke-15-Copy" stroke-width="4" transform="translate(207.527742, 7.665830) scale(-1, 1) translate(-207.527742, -7.665830) "></path>
            </g>
            <g id="Group-2" transform="translate(141.775758, 107.100000)">
                <path d="M15.3515152,0 L15.3515152,22.5" id="Stroke-19" stroke-width="2"></path>
                <path d="M0.903030303,0 L0.903030303,22.5" id="Stroke-19" stroke-width="2"></path>
            </g>
        </g>
        <g id="thumbnail/collar/Spread-collar" transform="translate(90.000000, 4.000000)">
            <g id="thumbnail/collar/Spread-collar-with-short-points">
                <polygon id="Fill-1" fill="#FFFFFF" points="0.9495 56.4629 9.8445 105.3909 67.4145 66.1429 8.7695 13.6789"></polygon>
                <g id="Group-22" transform="translate(0.000000, 0.340000)">
                    <path d="M9.8444,106 C9.7204,106 9.5954,105.976 9.4784,105.927 C9.1814,105.803 8.9674,105.537 8.9094,105.221 L0.0154,56.292 C-0.0056,56.18 -0.0056,56.064 0.0164,55.952 L7.8354,13.168 C7.9284,12.652 8.4214,12.314 8.9404,12.405 C9.4554,12.499 9.7974,12.994 9.7024,13.51 L1.9144,56.123 L10.5174,103.443 L66.8794,65.019 C67.3154,64.723 67.9044,64.835 68.1984,65.269 C68.4944,65.702 68.3824,66.292 67.9494,66.588 L10.3794,105.835 C10.2194,105.944 10.0324,106 9.8444,106" id="Fill-2" fill="#1B304E"></path>
                    <polyline id="Fill-5" fill="#FFFFFF" points="126.0621 13.3389 133.8811 56.1229 124.9871 105.0509 67.4151 65.8029"></polyline>
                    <path d="M124.9869,106 C124.7989,106 124.6119,105.944 124.4519,105.835 L66.8799,66.588 C66.4469,66.292 66.3349,65.702 66.6309,65.269 C66.9239,64.835 67.5139,64.723 67.9499,65.019 L124.3139,103.443 L132.9169,56.123 L125.1289,13.51 C125.0339,12.994 125.3759,12.499 125.8909,12.405 C126.4039,12.312 126.9019,12.652 126.9959,13.168 L134.8149,55.952 C134.8369,56.064 134.8369,56.18 134.8159,56.292 L125.9219,105.221 C125.8639,105.537 125.6499,105.803 125.3529,105.927 C125.2359,105.976 125.1109,106 124.9869,106" id="Fill-7" fill="#1B304E"></path>
                    <path d="M126.4518,15.1592 C126.4518,22.6422 100.0198,65.8032 67.4148,65.8032 C34.8098,65.8032 8.3778,22.6422 8.3778,15.1592 C8.3778,7.6762 34.8098,1.6102 67.4148,1.6102 C100.0198,1.6102 126.4518,7.6762 126.4518,15.1592" id="Fill-10" fill="#CED6DA"></path>
                    <path d="M67.4147,2.5596 C51.7157,2.5596 36.9657,3.9606 25.8817,6.5036 C15.5167,8.8826 9.3267,12.1186 9.3267,15.1596 C9.3267,22.6276 35.5987,64.8536 67.4147,64.8536 C99.2307,64.8536 125.5027,22.6276 125.5027,15.1596 C125.5027,12.1186 119.3137,8.8826 108.9477,6.5036 C97.8647,3.9606 83.1147,2.5596 67.4147,2.5596 M67.4147,66.7526 C57.5387,66.7526 42.1567,62.7926 24.9677,43.9266 C14.1007,32.0006 7.4287,19.1336 7.4287,15.1596 C7.4287,9.8956 17.2317,6.5406 25.4567,4.6526 C36.6757,2.0786 51.5767,0.6606 67.4147,0.6606 C83.2537,0.6606 98.1537,2.0786 109.3727,4.6526 C117.5977,6.5406 127.4007,9.8956 127.4007,15.1596 C127.4007,19.1336 120.7287,32.0006 109.8617,43.9266 C92.6727,62.7926 77.2917,66.7526 67.4147,66.7526" id="Fill-12" fill="#1B304E"></path>
                    <path d="M110.2418,42.4028 C99.0048,39.6708 83.7958,38.1658 67.4148,38.1658 C51.0358,38.1658 35.8268,39.6708 24.5898,42.4028 L24.3648,41.4798 C35.6738,38.7308 50.9628,37.2158 67.4148,37.2158 C83.8688,37.2158 99.1578,38.7308 110.4668,41.4798 L110.2418,42.4028 Z" id="Fill-14" fill="#1B304E"></path>
                    <path d="M71.1881,81.4121 C71.1881,83.5021 69.4951,85.1961 67.4051,85.1961 C65.3151,85.1961 63.6211,83.5021 63.6211,81.4121 C63.6211,79.3221 65.3151,77.6281 67.4051,77.6281 C69.4951,77.6281 71.1881,79.3221 71.1881,81.4121" id="Fill-16" fill="#1B304E"></path>
                    <path d="M58.8912,94.7837 L56.9982,94.7837 L56.9982,79.1977 C56.9982,74.7857 59.0472,69.3837 63.6222,67.2597 L64.4192,68.9747 C60.6002,70.7487 58.8912,75.3867 58.8912,79.1977 L58.8912,94.7837 Z" id="Fill-18" fill="#1B304E"></path>
                    <path d="M87.8893,90.4805 C84.9313,92.5015 81.6243,93.9955 78.1613,95.0205 C76.4353,95.5645 74.6513,95.9015 72.8583,96.1995 C71.0583,96.4535 69.2383,96.5735 67.4143,96.6005 C65.5923,96.5685 63.7713,96.4565 61.9723,96.1955 C60.1793,95.9005 58.3963,95.5585 56.6693,95.0155 C53.2063,93.9895 49.9013,92.4985 46.9413,90.4805 L47.0173,90.3065 C53.4493,93.0815 60.4083,94.7415 67.4143,94.7035 C74.4213,94.7405 81.3813,93.0815 87.8133,90.3065 L87.8893,90.4805 Z" id="Fill-20" fill="#1B304E"></path>
                </g>
            </g>
        </g>
    </g>
</svg>