<svg width="145" height="85" viewBox="0 0 145 85" fill="none" xmlns="http://www.w3.org/2000/svg">
<path d="M67.6 55.5C67.6 62 67.6 68.5 67.6 75" stroke="#B6BBC6" stroke-miterlimit="10" stroke-linecap="round" stroke-linejoin="round"/>
<path d="M76.2 55.7998C76.2 62.2998 76.2 68.7998 76.2 75.2998" stroke="#B6BBC6" stroke-miterlimit="10" stroke-linecap="round" stroke-linejoin="round"/>
<path d="M32.5 37.0996C24 40.4996 15.5 43.8996 6.90002 47.3996" stroke="#B6BBC6" stroke-miterlimit="10" stroke-linecap="round" stroke-linejoin="round"/>
<path d="M111.1 37.0996C119.6 40.4996 128.1 43.8996 136.7 47.3996" stroke="#B6BBC6" stroke-miterlimit="10" stroke-linecap="round" stroke-linejoin="round"/>
<path d="M82.9 43.7006C82.9 43.7006 60.7 44.5006 59.1 43.0006C55 41.6006 43.7 35.3006 40.5 29.4006C50.8 24.9006 63.1 22.1006 72.7 22.1006C82.3 22.1006 95.5 26.7006 105.8 31.1006C100.1 37.0006 87.1 43.1006 82.9 43.7006Z" fill="#D5DCDE"/>
<path d="M110.2 26.6006C107.7 36.0006 102.2 43.8006 95.6 48.6006C88.6 53.7006 80.6 55.3006 72.5 55.3006C64.4 55.3006 56.4 53.7006 49.4 48.6006C42.8 43.8006 37.3 36.0006 34.8 26.6006" stroke="#797E91" stroke-miterlimit="10" stroke-linecap="round" stroke-linejoin="round"/>
<path d="M108.3 15.5004C97.2 9.7004 83.8 5.90039 72.6 5.90039H72.4C61.2 5.90039 47.4 9.7004 36.3 15.5004C36.8 16.6004 37.3 25.2004 40.5 29.5004C50.8 25.0004 63.1 22.2004 72.7 22.2004C82.3 22.2004 95.5 26.8004 105.8 31.2004C106.7 28.9004 108.7 16.4004 108.3 15.5004Z" fill="#B3BFC2" stroke="#3B536B" stroke-miterlimit="10" stroke-linecap="round" stroke-linejoin="round"/>
<path d="M72.8 54.5002C74.1255 54.5002 75.2 53.4257 75.2 52.1002C75.2 50.7747 74.1255 49.7002 72.8 49.7002C71.4745 49.7002 70.4 50.7747 70.4 52.1002C70.4 53.4257 71.4745 54.5002 72.8 54.5002Z" fill="#3B536B"/>
<path d="M51 36.2C38.5 29.3 38.6 20 36.3 15.5C35.2 22.7 33 37.1 33 37.1L46.4 72.3C46.4 72.3 65.5 53.2 72.6 43.8C68.1 42.7 59 40.5 51 36.2Z" fill="white" stroke="#3B536B" stroke-miterlimit="10" stroke-linecap="round" stroke-linejoin="round"/>
<path d="M93.6 36.2C106.1 29.3 106 20 108.3 15.5C109.4 22.7 111.6 37.1 111.6 37.1L98.2 72.3C98.2 72.3 79.1 53.2 72 43.8C76.6 42.7 85.7 40.5 93.6 36.2Z" fill="white" stroke="#3B536B" stroke-miterlimit="10" stroke-linecap="round" stroke-linejoin="round"/>
</svg>
