<svg width="126" height="112" viewBox="0 0 126 112" fill="none" xmlns="http://www.w3.org/2000/svg">
<path d="M46.8764 11.5947C42.2147 12.4314 37.6725 13.2681 33.0108 14.1048" stroke="#B6BBC6" stroke-width="1.19531" stroke-miterlimit="10" stroke-linecap="round" stroke-linejoin="round"/>
<path d="M78.6714 11.5947C83.3331 12.4314 87.8753 13.2681 92.537 14.1048" stroke="#B6BBC6" stroke-width="1.19531" stroke-miterlimit="10" stroke-linecap="round" stroke-linejoin="round"/>
<path d="M34.4451 41.5967C34.8037 62.6341 35.1623 83.5519 35.5208 104.589" stroke="#B6BBC6" stroke-width="1.19531" stroke-miterlimit="10" stroke-linecap="round" stroke-linejoin="round"/>
<path d="M91.1026 41.5967C90.744 62.6341 90.3854 83.5519 90.0269 104.589" stroke="#B6BBC6" stroke-width="1.19531" stroke-miterlimit="10" stroke-linecap="round" stroke-linejoin="round"/>
<path d="M16.2765 52.3548C16.2765 52.3548 16.396 51.5181 19.5038 57.136C24.285 54.6259 29.6639 43.9877 34.4451 41.4775" stroke="#3B536B" stroke-width="1.19531" stroke-miterlimit="10" stroke-linecap="round" stroke-linejoin="round"/>
<path d="M33.0108 14.1045C22.6116 17.9295 16.157 31.556 16.157 31.556" stroke="#3B536B" stroke-width="1.19531" stroke-miterlimit="10" stroke-linecap="round" stroke-linejoin="round"/>
<path d="M35.5209 104.471C42.2146 104.471 49.0278 104.471 55.7216 104.471" stroke="#B6BBC6" stroke-width="1.19531" stroke-miterlimit="10" stroke-linecap="round" stroke-linejoin="round"/>
<path d="M33.0108 14.1045C34.0866 16.9732 35.2819 20.9178 35.76 25.5795C36.4772 32.2732 35.4014 37.8911 34.4452 41.5965" stroke="#3B536B" stroke-width="1.19531" stroke-miterlimit="10" stroke-linecap="round" stroke-linejoin="round"/>
<path d="M90.0269 104.471C78.5519 104.471 67.077 104.471 55.6021 104.471" stroke="#B6BBC6" stroke-width="1.19531" stroke-miterlimit="10" stroke-linecap="round" stroke-linejoin="round"/>
<path d="M92.5371 14.1045C91.4613 16.9732 90.266 20.9178 89.7879 25.5795C89.0707 32.2732 90.1465 37.8911 91.1027 41.5965" stroke="#3B536B" stroke-width="1.19531" stroke-miterlimit="10" stroke-linecap="round" stroke-linejoin="round"/>
<path d="M46.8763 11.5947C47.5935 13.0291 49.9841 16.7346 55.1239 18.6471C62.2957 21.2767 72.0972 17.5713 78.6714 11.5947" stroke="#B6BBC6" stroke-width="1.19531" stroke-miterlimit="10" stroke-linecap="round" stroke-linejoin="round"/>
<path d="M16.2766 31.5566C13.2883 37.5332 4.80162 52.7136 4.80162 52.7136C4.80162 52.7136 2.88913 56.419 3.48678 59.5268C4.20397 62.8736 4.80162 64.5471 4.80162 64.5471C4.80162 64.5471 8.50707 75.6634 21.5359 99.6891C24.6437 98.2547 29.9031 92.5173 33.0108 90.9634" stroke="#3B536B" stroke-width="1.19531" stroke-miterlimit="10" stroke-linecap="round" stroke-linejoin="round"/>
<path d="M33.0107 91.0832C28.9467 80.3254 23.0897 68.3724 19.0256 57.6146C19.3842 55.7021 15.3202 55.1045 15.3202 55.1045" stroke="#3B536B" stroke-width="1.19531" stroke-miterlimit="10" stroke-linecap="round" stroke-linejoin="round"/>
<path d="M109.271 52.3548C109.271 52.3548 109.152 51.5181 106.044 57.136C101.263 54.6259 95.8839 43.9877 91.1027 41.4775" stroke="#3B536B" stroke-width="1.19531" stroke-miterlimit="10" stroke-linecap="round" stroke-linejoin="round"/>
<path d="M92.537 14.1045C102.936 17.9295 109.391 31.556 109.391 31.556" stroke="#3B536B" stroke-width="1.19531" stroke-miterlimit="10" stroke-linecap="round" stroke-linejoin="round"/>
<path d="M109.271 31.5566C112.26 37.5332 120.746 52.7136 120.746 52.7136C120.746 52.7136 122.659 56.419 122.061 59.5268C121.344 62.8736 120.746 64.5471 120.746 64.5471C120.746 64.5471 117.041 75.6634 104.012 99.6891C100.904 98.2547 95.6448 92.5173 92.537 90.9634" stroke="#3B536B" stroke-width="1.19531" stroke-miterlimit="10" stroke-linecap="round" stroke-linejoin="round"/>
<path d="M92.537 91.0832C96.6011 80.3254 102.458 68.3724 106.522 57.6146C106.164 55.7021 110.228 55.1045 110.228 55.1045" stroke="#3B536B" stroke-width="1.19531" stroke-miterlimit="10" stroke-linecap="round" stroke-linejoin="round"/>
</svg>
