<?xml version="1.0" encoding="UTF-8"?>
<svg width="314px" height="144px" viewBox="0 0 314 144" version="1.1" xmlns="http://www.w3.org/2000/svg" xmlns:xlink="http://www.w3.org/1999/xlink" style="background: #FFFFFF;">
    <!-- Generator: Sketch 49.1 (51147) - http://www.bohemiancoding.com/sketch -->
    <title>Sleve-short</title>
    <desc>Created with Sketch.</desc>
    <defs></defs>
    <g id="Sleve-short" stroke="none" stroke-width="1" fill="none" fill-rule="evenodd">
        <g id="thumbnail/sleeve/short-sleeve" transform="translate(99.000000, 14.000000)">
            <g id="thumbail/sleeves/short-sleeve">
                <path d="M95.1794872,6.94017094 L70.3931624,0" id="Stroke-7" stroke="#CED6DA" stroke-width="2"></path>
                <path d="M44.6153846,6.94017094 L19.8290598,0" id="Stroke-7-Copy" stroke="#CED6DA" stroke-width="2" transform="translate(32.222222, 3.470085) scale(-1, 1) translate(-32.222222, -3.470085) "></path>
                <path d="M24.7863248,44.6153846 L25.1790374,88.1424461 L24.81989,104.724289 C24.8157876,104.910861 24.8844097,105.091935 25.0112115,105.23049 L28.6138738,109.163903 C32.5995521,113.515546 38.2769154,116 44.2343614,116 L57.9912358,116 L58.0087642,116 L71.7656386,116 C77.7230846,116 83.4004479,113.515546 87.3861262,109.163903 L90.9887885,105.23049 C91.1155903,105.091935 91.1842124,104.910861 91.18011,104.724289 L90.8209626,88.1424461 L91.2136752,44.6153846" id="Stroke-9" stroke="#CED6DA" stroke-width="2"></path>
                <path d="M94.6759755,6.94017094 C95.1118038,7.29743952 95.4622516,7.7462968 95.693943,8.25875733 C101.140438,16.1822694 106.27607,24.2896858 111.088809,32.5646513 L115.008547,39.3033256 L98.9675061,53.5384615 L94.6748113,48.9234092 L90.2222222,44.1364463" id="Stroke-1" stroke="#1B304E" stroke-width="2" stroke-linecap="round"></path>
                <path d="M4.45375332,6.94017094 C4.88958157,7.29743952 5.24002939,7.7462968 5.47172081,8.25875733 C10.9182156,16.1822694 16.053848,24.2896858 20.8665872,32.5646513 L24.7863248,39.3033256 L8.74528384,53.5384615 L4.45258904,48.9234092 L0,44.1364463" id="Stroke-1-Copy" stroke="#1B304E" stroke-width="2" stroke-linecap="round" transform="translate(12.393162, 30.239316) scale(-1, 1) translate(-12.393162, -30.239316) "></path>
            </g>
        </g>
    </g>
</svg>