<svg width="125" height="112" viewBox="0 0 125 112" fill="none" xmlns="http://www.w3.org/2000/svg">
<path d="M47.1365 11.9531C42.4748 12.7898 37.9326 13.6265 33.2709 14.4632" stroke="#B6BBC6" stroke-width="1.19531" stroke-miterlimit="10" stroke-linecap="round" stroke-linejoin="round"/>
<path d="M78.9316 11.9531C83.5933 12.7898 88.1354 13.6265 92.7971 14.4632" stroke="#B6BBC6" stroke-width="1.19531" stroke-miterlimit="10" stroke-linecap="round" stroke-linejoin="round"/>
<path d="M34.7053 41.9551C35.0639 62.9925 35.4224 83.9103 35.781 104.948" stroke="#B6BBC6" stroke-width="1.19531" stroke-miterlimit="10" stroke-linecap="round" stroke-linejoin="round"/>
<path d="M91.3628 41.9551C91.0042 62.9925 90.6456 83.9103 90.287 104.948" stroke="#B6BBC6" stroke-width="1.19531" stroke-miterlimit="10" stroke-linecap="round" stroke-linejoin="round"/>
<path d="M33.2709 14.583C22.8717 18.408 16.2975 32.154 12.353 34.7836C15.4608 40.5211 20.4811 44.8242 23.4694 50.5617C28.2506 48.0516 29.8045 44.4656 34.5857 41.9555" stroke="#3B536B" stroke-width="1.19531" stroke-miterlimit="10" stroke-linecap="round" stroke-linejoin="round"/>
<path d="M35.7811 104.947C42.4748 104.947 49.288 104.947 55.9817 104.947" stroke="#B6BBC6" stroke-width="1.19531" stroke-miterlimit="10" stroke-linecap="round" stroke-linejoin="round"/>
<path d="M33.2709 14.583C34.3467 17.4517 35.542 21.3962 36.0201 26.0579C36.7373 32.7516 35.6615 38.3696 34.7053 42.0751" stroke="#3B536B" stroke-width="1.19531" stroke-miterlimit="10" stroke-linecap="round" stroke-linejoin="round"/>
<path d="M92.7971 14.583C103.196 18.408 109.77 32.154 113.715 34.7836C110.607 40.5211 105.587 44.8242 102.599 50.5617C97.8174 48.0516 96.2635 44.4656 91.4823 41.9555" stroke="#3B536B" stroke-width="1.19531" stroke-miterlimit="10" stroke-linecap="round" stroke-linejoin="round"/>
<path d="M90.287 104.947C78.8121 104.947 67.3371 104.947 55.8622 104.947" stroke="#B6BBC6" stroke-width="1.19531" stroke-miterlimit="10" stroke-linecap="round" stroke-linejoin="round"/>
<path d="M92.7972 14.583C91.7214 17.4517 90.5261 21.3962 90.048 26.0579C89.3308 32.7516 90.4066 38.3696 91.3628 42.0751" stroke="#3B536B" stroke-width="1.19531" stroke-miterlimit="10" stroke-linecap="round" stroke-linejoin="round"/>
<path d="M47.1365 11.9531C47.8537 13.3875 50.2443 17.093 55.3841 19.0055C62.5559 21.6351 72.3574 17.9297 78.9316 11.9531" stroke="#B6BBC6" stroke-width="1.19531" stroke-miterlimit="10" stroke-linecap="round" stroke-linejoin="round"/>
</svg>
