<?xml version="1.0" encoding="UTF-8"?>
<svg width="314px" height="144px" viewBox="0 0 314 144" version="1.1" xmlns="http://www.w3.org/2000/svg" xmlns:xlink="http://www.w3.org/1999/xlink" style="background: #FFFFFF;">
    <!-- Generator: Sketch 49.1 (51147) - http://www.bohemiancoding.com/sketch -->
    <title>Collar-band</title>
    <desc>Created with Sketch.</desc>
    <defs></defs>
    <g id="Collar-band" stroke="none" stroke-width="1" fill="none" fill-rule="evenodd">
        <g id="thumbnail-misc/collar-background" opacity="0.400000006" transform="translate(8.000000, 3.000000)" stroke="#A9B4C0" stroke-linecap="round" stroke-linejoin="round">
            <g id="Group" transform="translate(31.606061, 56.700000)">
                <path d="M51.681933,0.9 C39.2562011,4.31793663 14.0824584,11.2906596 0,15.1427403" id="Stroke-15" stroke-width="4"></path>
                <path d="M235.352454,0 C225.330379,2.74141342 195.520445,11.0050031 179.70303,15.3316595" id="Stroke-15-Copy" stroke-width="4" transform="translate(207.527742, 7.665830) scale(-1, 1) translate(-207.527742, -7.665830) "></path>
            </g>
            <g id="Group-2" transform="translate(141.775758, 107.100000)">
                <path d="M15.3515152,0 L15.3515152,22.5" id="Stroke-19" stroke-width="2"></path>
                <path d="M0.903030303,0 L0.903030303,22.5" id="Stroke-19" stroke-width="2"></path>
            </g>
        </g>
        <g id="thumbnail/collar/Band-collar" transform="translate(90.000000, 9.000000)">
            <g>
                <path d="M17.6371,69.4575 C17.6371,69.4575 0.6161,57.7095 0.6161,51.6645 L8.4361,12.6785" id="Fill-1" fill="#FFFFFF"></path>
                <path d="M17.6371,69.4575 C14.1581,67.1255 10.7851,64.6245 7.5971,61.8815 C6.0091,60.5025 4.4661,59.0615 3.0621,57.4605 C2.3631,56.6585 1.6981,55.8155 1.1281,54.8825 C0.5731,53.9495 0.0531,52.9175 0.0001,51.6645 C-0.0009,51.6325 0.0011,51.6015 0.0071,51.5715 L0.0121,51.5435 L7.5051,12.4925 C7.6041,11.9775 8.1021,11.6395 8.6161,11.7385 C9.1321,11.8375 9.4691,12.3345 9.3701,12.8505 C9.3691,12.8535 9.3671,12.8615 9.3671,12.8655 L1.2211,51.7855 L1.2331,51.6645 C1.2161,52.5235 1.5881,53.4725 2.0621,54.3435 C2.5411,55.2235 3.1361,56.0625 3.7741,56.8695 C5.0541,58.4845 6.5071,59.9845 8.0111,61.4255 C11.0361,64.2975 14.2781,66.9585 17.6371,69.4575" id="Fill-3" fill="#1B304E"></path>
                <path d="M116.5277,69.4575 C116.5277,69.4575 133.5487,57.7095 133.5487,51.6645 L125.7287,12.6785" id="Fill-6" fill="#FFFFFF"></path>
                <path d="M116.5277,69.4575 C119.8867,66.9585 123.1287,64.2975 126.1537,61.4255 C127.6577,59.9845 129.1107,58.4845 130.3907,56.8695 C131.0287,56.0625 131.6237,55.2235 132.1027,54.3435 C132.5767,53.4725 132.9487,52.5235 132.9317,51.6645 L132.9437,51.7855 L124.7977,12.8655 C124.6897,12.3525 125.0187,11.8495 125.5327,11.7415 C126.0457,11.6345 126.5487,11.9635 126.6567,12.4765 C126.6577,12.4795 126.6587,12.4885 126.6597,12.4925 L134.1527,51.5435 L134.1577,51.5695 C134.1637,51.6005 134.1657,51.6335 134.1647,51.6645 C134.1117,52.9175 133.5917,53.9495 133.0367,54.8825 C132.4667,55.8155 131.8017,56.6585 131.1027,57.4605 C129.6987,59.0615 128.1557,60.5025 126.5677,61.8815 C123.3797,64.6245 120.0067,67.1255 116.5277,69.4575" id="Fill-8" fill="#1B304E"></path>
                <path d="M126.1195,14.499 C126.1195,21.982 99.6875,61.345 67.0825,61.345 C34.4765,61.345 8.0455,21.982 8.0455,14.499 C8.0455,7.016 34.4765,0.95 67.0825,0.95 C99.6875,0.95 126.1195,7.016 126.1195,14.499" id="Fill-10" fill="#CED6DA"></path>
                <path d="M67.0824,1.8994 C51.3824,1.8994 36.6324,3.3004 25.5494,5.8434 C15.1834,8.2224 8.9944,11.4584 8.9944,14.4994 C8.9944,21.3974 35.2664,60.3954 67.0824,60.3954 C98.8984,60.3954 125.1704,21.3974 125.1704,14.4994 C125.1704,11.4584 118.9814,8.2224 108.6154,5.8434 C97.5324,3.3004 82.7824,1.8994 67.0824,1.8994 M67.0824,62.2954 C33.4504,62.2954 7.0964,21.9214 7.0964,14.4994 C7.0964,9.2354 16.8994,5.8804 25.1244,3.9924 C36.3434,1.4184 51.2434,0.0004 67.0824,0.0004 C82.9214,0.0004 97.8214,1.4184 109.0404,3.9924 C117.2654,5.8804 127.0684,9.2354 127.0684,14.4994 C127.0684,21.9214 100.7144,62.2954 67.0824,62.2954" id="Fill-12" fill="#1B304E"></path>
                <path d="M109.9095,37.9448 C98.6715,35.2128 83.4625,33.7078 67.0825,33.7078 C50.7035,33.7078 35.4945,35.2128 24.2575,37.9448 L24.0325,37.0218 C35.3425,34.2728 50.6305,32.7578 67.0825,32.7578 C83.5355,32.7578 98.8245,34.2728 110.1345,37.0218 L109.9095,37.9448 Z" id="Fill-14" fill="#1B304E"></path>
                <path d="M70.8558,76.9536 C70.8558,79.0436 69.1618,80.7376 67.0718,80.7376 C64.9818,80.7376 63.2878,79.0436 63.2878,76.9536 C63.2878,74.8646 64.9818,73.1696 67.0718,73.1696 C69.1618,73.1696 70.8558,74.8646 70.8558,76.9536" id="Fill-16" fill="#1B304E"></path>
                <path d="M58.558,87.9317 L56.665,87.9317 L56.665,74.7397 C56.665,69.9717 59.46,65.5937 63.786,63.5847 L70.457,60.4877 L71.254,62.2027 L64.582,65.3007 C60.922,66.9997 58.558,70.7047 58.558,74.7397 L58.558,87.9317 Z" id="Fill-18" fill="#1B304E"></path>
                <path d="M101.6254,80.4224 C99.0484,81.9434 96.3184,83.1654 93.5654,84.3634 C90.7854,85.4874 87.9354,86.4664 85.0214,87.2374 C82.1154,88.0484 79.1384,88.5914 76.1444,89.0274 C73.1444,89.4214 70.1134,89.6124 67.0824,89.6394 C64.0514,89.6074 61.0214,89.4224 58.0214,89.0234 C55.0264,88.5894 52.0504,88.0434 49.1454,87.2334 C46.2304,86.4634 43.3814,85.4834 40.6014,84.3594 C37.8474,83.1634 35.1174,81.9414 32.5394,80.4224 L32.5294,80.4164 C32.4844,80.3904 32.4704,80.3324 32.4964,80.2874 C32.5214,80.2454 32.5724,80.2294 32.6154,80.2484 C43.4734,84.9554 55.2304,87.7854 67.0824,87.7414 C78.9344,87.7844 90.6914,84.9554 101.5494,80.2484 C101.5974,80.2274 101.6524,80.2494 101.6744,80.2974 C101.6924,80.3414 101.6754,80.3924 101.6354,80.4164 L101.6254,80.4224 Z" id="Fill-20" fill="#1B304E"></path>
                <path d="M66.931,89.522 C34.731,89.522 12.256,66.534 3.795,57.879 C3.067,57.134 2.44,56.493 1.916,55.979 L2.582,55.302 C3.109,55.819 3.741,56.465 4.474,57.216 C12.859,65.792 35.131,88.573 66.931,88.573 C88.623,88.573 109.989,77.801 130.433,56.556 C130.813,56.162 131.135,55.826 131.401,55.557 L132.077,56.223 C131.814,56.49 131.494,56.823 131.118,57.214 C110.487,78.652 88.891,89.522 66.931,89.522" id="Fill-22" fill="#1B304E"></path>
            </g>
        </g>
    </g>
</svg>