<svg width="145" height="85" viewBox="0 0 145 85" fill="none" xmlns="http://www.w3.org/2000/svg">
<path d="M32.5 36.7002C24 40.1002 15.5 43.5002 6.90002 47.0002" stroke="#B6BBC6" stroke-miterlimit="10" stroke-linecap="round" stroke-linejoin="round"/>
<path d="M67.6 53.2998C67.6 60.0998 67.6 66.8998 67.6 73.6998" stroke="#B6BBC6" stroke-miterlimit="10" stroke-linecap="round" stroke-linejoin="round"/>
<path d="M76.2 53.5996C76.2 60.3996 76.2 67.1996 76.2 73.9996" stroke="#B6BBC6" stroke-miterlimit="10" stroke-linecap="round" stroke-linejoin="round"/>
<path d="M82 42.8998C82 42.8998 59.8 43.6998 58.2 42.1998C54.1 40.7998 42.8 34.4998 39.6 28.5998C49.9 24.0998 62.2 21.2998 71.8 21.2998C81.4 21.2998 94.6 25.8998 104.9 30.2998C99.1 36.1998 86.1 42.2998 82 42.8998Z" fill="#D5DCDE"/>
<path d="M109.2 25.7998C106.7 35.1998 101.2 42.9998 94.6 47.7998C87.6 52.8998 79.6 54.4998 71.5 54.4998C63.4 54.4998 55.4 52.8998 48.4 47.7998C41.8 42.9998 36.3 35.1998 33.8 25.7998" stroke="#797E91" stroke-miterlimit="10" stroke-linecap="round" stroke-linejoin="round"/>
<path d="M107.3 14.6996C96.2 8.89961 82.8 5.09961 71.6 5.09961H71.4C60.2 5.09961 46.4 8.89961 35.3 14.6996C35.8 15.7996 36.3 24.3996 39.5 28.6996C49.8 24.1996 62.1 21.3996 71.7 21.3996C81.3 21.3996 94.5 25.9996 104.8 30.3996C105.7 28.0996 107.7 15.5996 107.3 14.6996Z" fill="#B3BFC2" stroke="#3B536B" stroke-miterlimit="10" stroke-linecap="round" stroke-linejoin="round"/>
<path d="M71.8 53.6994C73.1255 53.6994 74.2 52.6249 74.2 51.2994C74.2 49.9739 73.1255 48.8994 71.8 48.8994C70.4745 48.8994 69.4 49.9739 69.4 51.2994C69.4 52.6249 70.4745 53.6994 71.8 53.6994Z" fill="#3B536B"/>
<path d="M50 35.3992C37.5 28.4992 37.6 19.1992 35.3 14.6992C34.2 21.8992 33.1 29.0992 32 36.2992C38.1 47.9992 58.1 54.5992 69.4 54.5992C71 46.1992 71.6 42.9992 71.6 42.9992C67.1 41.8992 58 39.6992 50 35.3992Z" fill="white" stroke="#3B536B" stroke-miterlimit="10" stroke-linecap="round" stroke-linejoin="round"/>
<path d="M92.6 35.3992C105.1 28.4992 105 19.1992 107.3 14.6992C108.4 21.8992 109.5 29.0992 110.6 36.2992C104.5 47.9992 93 56.3992 65.7 54.2992C65.7 54.2992 64.1 44.4992 69.3 42.4992C80.7 42.8992 84.7 39.6992 92.6 35.3992Z" fill="white" stroke="#3B536B" stroke-miterlimit="10" stroke-linecap="round" stroke-linejoin="round"/>
<path d="M71.8 51.3C73.1255 51.3 74.2 50.2255 74.2 48.9C74.2 47.5745 73.1255 46.5 71.8 46.5C70.4745 46.5 69.4 47.5745 69.4 48.9C69.4 50.2255 70.4745 51.3 71.8 51.3Z" fill="#3B536B"/>
<path d="M72.3 51.0998C73.6255 51.0998 74.7 50.0253 74.7 48.6998C74.7 47.3743 73.6255 46.2998 72.3 46.2998C70.9745 46.2998 69.9 47.3743 69.9 48.6998C69.9 50.0253 70.9745 51.0998 72.3 51.0998Z" fill="#3B536B"/>
<path d="M111.1 36.7002C119.6 40.1002 128.1 43.5002 136.7 47.0002" stroke="#B6BBC6" stroke-miterlimit="10" stroke-linecap="round" stroke-linejoin="round"/>
</svg>
