<svg width="144" height="85" viewBox="0 0 144 85" fill="none" xmlns="http://www.w3.org/2000/svg">
<path d="M66.2 11.4004C66.2 32.3004 66.2 53.3004 66.2 74.2004" stroke="#3B536B" stroke-miterlimit="10" stroke-linecap="round" stroke-linejoin="round"/>
<path d="M75.2 11.4004C75.2 32.3004 75.2 53.3004 75.2 74.2004" stroke="#B6BBC6" stroke-miterlimit="10" stroke-linecap="round" stroke-linejoin="round"/>
<path d="M70.7 19.5004C71.6941 19.5004 72.5 18.6945 72.5 17.7004C72.5 16.7063 71.6941 15.9004 70.7 15.9004C69.7059 15.9004 68.9 16.7063 68.9 17.7004C68.9 18.6945 69.7059 19.5004 70.7 19.5004Z" fill="#B6BBC6"/>
<path d="M70.7 41.8002C71.6941 41.8002 72.5 40.9943 72.5 40.0002C72.5 39.0061 71.6941 38.2002 70.7 38.2002C69.7059 38.2002 68.9 39.0061 68.9 40.0002C68.9 40.9943 69.7059 41.8002 70.7 41.8002Z" fill="#B6BBC6"/>
<path d="M70.7 64.1996C71.6941 64.1996 72.5 63.3937 72.5 62.3996C72.5 61.4055 71.6941 60.5996 70.7 60.5996C69.7059 60.5996 68.9 61.4055 68.9 62.3996C68.9 63.3937 69.7059 64.1996 70.7 64.1996Z" fill="#B6BBC6"/>
</svg>
