<svg width="634" height="856" viewBox="0 0 634 856" fill="none" xmlns="http://www.w3.org/2000/svg">
<path d="M264 204L281 178C284.333 184.667 293.9 200.7 305.5 211.5C317.1 222.3 328.333 227 332.5 228L305.5 255L264 204Z" stroke="black"/>
<path d="M412.5 204L395.5 178C392.167 184.667 382.6 200.7 371 211.5C359.4 222.3 348.167 227 344 228L371 255L412.5 204Z" stroke="black"/>
<path d="M281.5 177.5C287.833 172.833 308.6 163.6 341 164C373.4 164.4 390.833 173.167 395.5 177.5M292.5 196C301.167 192.667 322.5 186 338.5 186C354.5 186 375.833 192.667 384.5 196M331.5 201V210H351.5V201H331.5Z" stroke="black"/>
<path d="M333.5 227.5L343.5 224.5" stroke="black"/>
</svg>
