<svg width="634" height="856" viewBox="0 0 634 856" fill="none" xmlns="http://www.w3.org/2000/svg">
<path d="M263 204L279.5 198.5V186.5C288.333 191 311.4 199.7 333 198.5C354.6 197.3 381.667 188 392.5 183.5V198.5L413 204" stroke="black"/>
<path d="M393 183C386.5 181.166 365.7 177.8 334.5 179C303.3 180.2 285.167 184.167 280 186" stroke="black"/>
<path d="M279.5 198C288.167 203 307.5 211.353 339 209.5C364.5 208 377.5 201.333 392 198" stroke="black"/>
<path d="M364 206.5V193.5" stroke="black"/>
<circle cx="357.5" cy="202.5" r="2" stroke="black"/>
<path d="M333.5 227.5V210.5M343.5 224.5V209" stroke="black"/>
</svg>
